<?xml version="1.0" standalone="no"?>
<!DOCTYPE svg PUBLIC "-//W3C//DTD SVG 20010904//EN"
 "http://www.w3.org/TR/2001/REC-SVG-20010904/DTD/svg10.dtd">
<svg version="1.0" xmlns="http://www.w3.org/2000/svg"
 width="1024.000000pt" height="1024.000000pt" viewBox="0 0 1024.000000 1024.000000"
 preserveAspectRatio="xMidYMid meet">
<metadata>
Created by potrace 1.14, written by Peter Selinger 2001-2017
</metadata>
<g transform="translate(0.000000,1024.000000) scale(0.100000,-0.100000)"
fill="#000000" stroke="none">
<path d="M2008 10235 c-1 -2 -21 -6 -43 -9 -96 -15 -148 -27 -162 -38 -7 -6
-13 -8 -13 -5 0 6 -47 -9 -105 -34 -16 -7 -32 -13 -35 -14 -31 -8 -189 -104
-218 -132 -7 -7 -16 -13 -20 -13 -14 0 -160 -147 -209 -210 -60 -79 -121 -184
-152 -265 -13 -33 -27 -69 -32 -80 -12 -30 -29 -99 -44 -184 -22 -119 -21
-8162 1 -8271 8 -41 16 -82 17 -90 1 -8 5 -19 8 -25 3 -5 12 -32 19 -60 15
-56 117 -261 152 -305 13 -15 34 -43 48 -60 59 -78 214 -216 294 -262 113 -65
262 -129 336 -143 8 -2 44 -9 80 -16 53 -11 301 -14 1300 -14 679 0 1258 3
1285 7 108 15 348 94 366 121 3 5 10 8 15 8 14 -2 145 84 195 126 58 50 149
144 174 179 11 15 30 40 43 55 12 15 22 30 22 35 0 4 6 15 14 23 31 37 120
233 131 291 1 3 4 19 8 35 4 17 9 40 12 53 2 13 6 31 9 40 3 9 8 48 11 86 3
38 7 71 9 73 2 2 0 20 -4 39 -5 20 -4 34 2 34 5 0 7 4 4 8 -6 9 -7 59 -5 143
1 31 -1 62 -5 67 -3 6 -2 13 3 17 6 3 7 16 3 28 -4 12 -6 36 -5 52 2 17 3 41
2 55 0 14 0 31 0 38 4 67 2 122 -3 130 -3 6 -2 13 3 17 6 3 7 16 3 28 -4 12
-6 36 -5 52 6 58 4 145 -2 155 -3 5 -3 10 2 10 9 0 8 123 -1 146 -3 8 -2 14 2
14 8 0 7 113 -1 135 -4 8 -2 17 3 20 5 3 6 16 2 28 -4 12 -6 36 -5 52 6 63 5
133 -1 143 -3 6 -2 13 3 17 6 3 7 16 3 28 -4 12 -6 36 -5 52 6 63 5 133 -1
143 -3 6 -2 13 3 17 6 3 7 15 2 28 -4 12 -5 36 -1 52 3 17 3 42 -1 58 -4 15
-5 27 -1 27 8 0 6 125 -2 146 -3 8 -1 14 5 14 6 0 8 4 5 8 -6 9 -7 59 -5 143
1 31 -1 62 -5 67 -3 6 -2 13 3 17 6 3 7 16 3 28 -4 12 -6 36 -5 52 2 17 3 41
2 55 0 14 0 31 0 38 4 67 2 122 -3 130 -3 6 -2 13 3 17 6 3 7 16 3 28 -4 12
-6 36 -5 52 6 58 4 145 -2 155 -3 5 -3 10 2 10 9 0 8 123 -1 146 -3 8 -2 14 2
14 8 0 7 113 -1 135 -4 8 -2 17 3 20 5 3 6 16 2 28 -4 12 -6 36 -5 52 6 63 5
133 -1 143 -3 6 -2 13 3 17 6 3 7 16 3 28 -4 12 -6 36 -5 52 6 63 5 133 -1
143 -3 6 -2 13 3 17 6 3 7 15 2 28 -4 12 -5 36 -1 52 3 17 3 42 -1 58 -4 15
-5 27 -1 27 8 0 6 125 -2 146 -3 8 -2 14 2 14 8 0 6 124 -2 146 -3 8 -2 14 2
14 8 0 6 124 -2 146 -3 8 -2 14 3 14 4 0 6 11 3 25 l-4 25 -186 -2 -187 -3 -1
-2170 c-1 -1193 -4 -2186 -7 -2205 -3 -19 -10 -47 -16 -62 -6 -16 -7 -28 -4
-28 4 0 2 -5 -5 -12 -7 -7 -12 -18 -12 -26 0 -29 -70 -163 -120 -226 -25 -33
-152 -156 -161 -156 -4 0 -14 -6 -21 -14 -22 -21 -162 -89 -228 -111 -9 -3
-100 -17 -107 -17 -5 0 -12 -3 -18 -7 -13 -9 -2387 -6 -2440 3 -22 4 -58 12
-80 18 -22 7 -42 12 -45 13 -3 1 -22 9 -44 18 -21 9 -42 17 -46 17 -4 0 -42
23 -85 50 -183 120 -313 308 -356 516 -9 46 -12 946 -14 4094 -1 2219 1 4039
3 4044 3 5 6 23 8 40 3 28 6 45 19 96 2 8 4 16 5 18 2 1 3 5 5 10 3 11 15 41
38 92 68 155 237 319 394 384 112 47 123 50 229 64 76 10 2375 8 2434 -2 170
-29 319 -106 441 -226 118 -118 190 -257 225 -435 3 -16 7 -200 8 -407 l1
-378 45 -1 c313 -4 352 1 330 41 -5 9 -5 22 0 30 4 7 5 23 1 34 -3 12 -5 35
-4 51 2 17 3 41 2 55 0 14 0 31 0 38 4 67 2 122 -3 130 -3 6 -2 13 3 17 6 3 7
16 3 28 -4 12 -6 36 -5 52 6 56 5 144 -1 154 -4 5 -2 12 4 16 6 4 8 10 5 15
-3 5 -7 37 -9 73 -4 73 -24 202 -36 232 -4 11 -18 49 -30 85 -20 60 -114 249
-129 260 -3 3 -15 18 -24 33 -57 88 -279 297 -316 297 -6 0 -11 5 -11 10 0 6
-4 10 -10 10 -5 0 -32 14 -60 30 -28 17 -57 30 -65 30 -7 0 -15 4 -17 8 -6 15
-199 73 -286 86 -68 10 -355 13 -1304 14 -669 0 -1218 -1 -1220 -3z"/>
<path d="M3899 7846 c-2 -2 -24 -7 -47 -11 -24 -3 -72 -15 -105 -25 -34 -11
-65 -20 -69 -20 -15 -2 -164 -83 -205 -112 -53 -36 -170 -149 -210 -203 -46
-62 -92 -142 -86 -149 4 -3 1 -6 -5 -6 -7 0 -12 -4 -12 -9 0 -5 -8 -26 -17
-47 -19 -45 -18 -40 -38 -119 -9 -33 -17 -79 -19 -101 -2 -23 -5 -45 -8 -50
-9 -15 -1 -176 11 -234 6 -30 13 -64 15 -75 18 -91 125 -311 157 -323 5 -2 9
-8 9 -13 0 -5 8 -17 18 -28 9 -10 30 -32 45 -49 40 -44 125 -114 172 -142 22
-13 42 -27 45 -30 6 -8 174 -80 200 -86 11 -2 30 -6 43 -9 12 -3 36 -8 52 -10
17 -3 41 -7 55 -10 37 -8 4466 -8 4546 0 310 31 594 230 736 516 21 43 38 84
38 91 0 8 4 18 9 24 9 8 16 32 26 89 2 11 8 43 14 70 10 50 8 257 -3 305 -18
81 -21 90 -29 113 -17 43 -20 53 -23 66 -4 20 -64 133 -82 154 -8 9 -11 17 -6
17 5 0 4 4 -1 8 -6 4 -26 27 -45 52 -39 50 -161 170 -173 170 -7 0 -16 6 -50
36 -36 31 -238 118 -302 130 -5 1 -26 5 -45 10 -34 8 -4603 18 -4611 10z
m4519 -695 c182 -93 199 -337 31 -453 -169 -118 -404 4 -409 212 -1 30 4 70
10 78 2 1 3 5 5 10 21 78 93 145 185 173 41 12 136 2 178 -20z"/>
<path d="M3157 3914 c-1 -1 -33 -5 -72 -8 -85 -7 -103 -10 -226 -41 -92 -23
-243 -77 -264 -95 -5 -5 -13 -9 -17 -9 -16 -2 -103 -46 -106 -53 -2 -5 -9 -8
-16 -8 -7 0 -32 -14 -54 -30 -23 -17 -42 -28 -42 -25 0 3 -20 -10 -44 -28 -23
-17 -53 -39 -66 -47 -12 -8 -28 -19 -34 -25 -6 -5 -28 -23 -49 -38 -35 -26
-48 -37 -108 -94 -47 -43 -61 -74 -64 -143 -4 -106 106 -205 215 -193 33 3
130 50 130 63 0 7 123 107 127 103 1 -1 15 9 29 22 15 14 33 25 40 25 7 0 14
4 16 9 11 30 292 162 394 186 10 2 39 9 64 15 25 6 69 13 99 15 30 3 56 7 59
9 2 3 13 1 23 -5 11 -5 19 -6 19 -1 0 8 88 7 140 -1 14 -3 45 -8 69 -12 117
-18 320 -101 433 -175 33 -22 62 -40 64 -40 6 0 177 -138 224 -181 54 -49 72
-58 128 -65 141 -17 251 115 209 251 -14 46 -131 166 -232 237 -5 4 -23 18
-40 32 -157 124 -454 269 -630 308 -126 27 -134 28 -195 34 -59 6 -219 12
-223 8z"/>
<path d="M3146 3162 c-2 -1 -20 -4 -42 -6 -21 -3 -41 -5 -44 -6 -3 -1 -8 -2
-12 -1 -7 1 -104 -26 -128 -36 -8 -3 -20 -7 -26 -8 -25 -6 -142 -61 -204 -97
-176 -102 -253 -187 -252 -279 1 -63 39 -129 92 -161 84 -50 149 -43 250 31
36 26 90 60 120 77 30 16 58 34 62 39 4 6 8 7 8 3 0 -4 20 1 43 11 93 40 295
59 345 32 11 -6 22 -8 25 -4 3 3 14 2 24 -2 10 -5 26 -10 35 -11 25 -5 133
-57 136 -66 2 -4 9 -8 15 -8 12 0 128 -78 138 -93 9 -13 112 -45 124 -39 5 4
22 7 37 8 29 3 73 28 101 59 69 77 63 208 -14 272 -17 15 -36 31 -43 37 -24
22 -105 76 -114 76 -6 0 -12 4 -14 8 -8 21 -219 115 -285 128 -6 1 -27 7 -45
12 -50 16 -143 26 -241 26 -49 1 -90 0 -91 -2z"/>
<path d="M3101 2416 c-34 -17 -69 -38 -78 -47 -27 -24 -53 -58 -53 -68 0 -5
-4 -11 -9 -13 -18 -7 -48 -121 -45 -172 4 -71 8 -86 39 -144 51 -97 168 -172
270 -174 250 -2 416 254 305 472 -60 117 -163 178 -298 177 -58 0 -81 -6 -131
-31z"/>
</g>
</svg>
